<mxfile host="app.diagrams.net" modified="2022-09-29T18:41:50.353Z" agent="5.0 (X11; Linux x86_64) AppleWebKit/537.36 (KHTML, like Gecko) Chrome/105.0.0.0 Safari/537.36" etag="5faaqqJ-SKSrAmJ4C-sF" version="20.3.6" type="github">
  <diagram id="131r03M99FLlJEkNV0-j" name="Página-1">
    <mxGraphModel dx="2222" dy="1111" grid="1" gridSize="10" guides="1" tooltips="1" connect="1" arrows="1" fold="1" page="0" pageScale="1" pageWidth="827" pageHeight="1169" math="0" shadow="0">
      <root>
        <mxCell id="0" />
        <mxCell id="1" parent="0" />
        <mxCell id="OumvZOSQ2JKvcHOGsWiu-22" style="edgeStyle=orthogonalEdgeStyle;rounded=0;orthogonalLoop=1;jettySize=auto;html=1;exitX=1;exitY=0.5;exitDx=0;exitDy=0;entryX=0;entryY=0.5;entryDx=0;entryDy=0;" edge="1" parent="1" source="OumvZOSQ2JKvcHOGsWiu-2" target="OumvZOSQ2JKvcHOGsWiu-3">
          <mxGeometry relative="1" as="geometry" />
        </mxCell>
        <mxCell id="OumvZOSQ2JKvcHOGsWiu-2" value="Config" style="rounded=1;whiteSpace=wrap;html=1;fillColor=#dae8fc;strokeColor=#6c8ebf;" vertex="1" parent="1">
          <mxGeometry x="100" y="90" width="120" height="60" as="geometry" />
        </mxCell>
        <mxCell id="OumvZOSQ2JKvcHOGsWiu-23" style="edgeStyle=orthogonalEdgeStyle;rounded=0;orthogonalLoop=1;jettySize=auto;html=1;exitX=1;exitY=0.5;exitDx=0;exitDy=0;entryX=0;entryY=0.5;entryDx=0;entryDy=0;" edge="1" parent="1" source="OumvZOSQ2JKvcHOGsWiu-3" target="OumvZOSQ2JKvcHOGsWiu-4">
          <mxGeometry relative="1" as="geometry" />
        </mxCell>
        <mxCell id="OumvZOSQ2JKvcHOGsWiu-3" value="Models" style="rounded=1;whiteSpace=wrap;html=1;fillColor=#dae8fc;strokeColor=#6c8ebf;" vertex="1" parent="1">
          <mxGeometry x="260" y="90" width="120" height="60" as="geometry" />
        </mxCell>
        <mxCell id="OumvZOSQ2JKvcHOGsWiu-24" style="edgeStyle=orthogonalEdgeStyle;rounded=0;orthogonalLoop=1;jettySize=auto;html=1;exitX=1;exitY=0.5;exitDx=0;exitDy=0;entryX=0;entryY=0.5;entryDx=0;entryDy=0;" edge="1" parent="1" source="OumvZOSQ2JKvcHOGsWiu-4" target="OumvZOSQ2JKvcHOGsWiu-5">
          <mxGeometry relative="1" as="geometry" />
        </mxCell>
        <mxCell id="OumvZOSQ2JKvcHOGsWiu-25" style="edgeStyle=orthogonalEdgeStyle;rounded=0;orthogonalLoop=1;jettySize=auto;html=1;exitX=0.5;exitY=1;exitDx=0;exitDy=0;entryX=0.5;entryY=0;entryDx=0;entryDy=0;" edge="1" parent="1" source="OumvZOSQ2JKvcHOGsWiu-4" target="OumvZOSQ2JKvcHOGsWiu-8">
          <mxGeometry relative="1" as="geometry" />
        </mxCell>
        <mxCell id="OumvZOSQ2JKvcHOGsWiu-4" value="Services" style="rounded=1;whiteSpace=wrap;html=1;fillColor=#dae8fc;strokeColor=#6c8ebf;" vertex="1" parent="1">
          <mxGeometry x="420" y="90" width="120" height="60" as="geometry" />
        </mxCell>
        <mxCell id="OumvZOSQ2JKvcHOGsWiu-5" value="Index" style="rounded=1;whiteSpace=wrap;html=1;fillColor=#dae8fc;strokeColor=#6c8ebf;" vertex="1" parent="1">
          <mxGeometry x="580" y="90" width="120" height="60" as="geometry" />
        </mxCell>
        <mxCell id="OumvZOSQ2JKvcHOGsWiu-6" value="App" style="rounded=1;whiteSpace=wrap;html=1;fillColor=#dae8fc;strokeColor=#6c8ebf;" vertex="1" parent="1">
          <mxGeometry x="100" y="230" width="120" height="60" as="geometry" />
        </mxCell>
        <mxCell id="OumvZOSQ2JKvcHOGsWiu-27" style="edgeStyle=orthogonalEdgeStyle;rounded=0;orthogonalLoop=1;jettySize=auto;html=1;exitX=0;exitY=0.5;exitDx=0;exitDy=0;entryX=1;entryY=0.5;entryDx=0;entryDy=0;" edge="1" parent="1" source="OumvZOSQ2JKvcHOGsWiu-7" target="OumvZOSQ2JKvcHOGsWiu-6">
          <mxGeometry relative="1" as="geometry" />
        </mxCell>
        <mxCell id="OumvZOSQ2JKvcHOGsWiu-7" value="Routers" style="rounded=1;whiteSpace=wrap;html=1;fillColor=#dae8fc;strokeColor=#6c8ebf;" vertex="1" parent="1">
          <mxGeometry x="260" y="230" width="120" height="60" as="geometry" />
        </mxCell>
        <mxCell id="OumvZOSQ2JKvcHOGsWiu-26" style="edgeStyle=orthogonalEdgeStyle;rounded=0;orthogonalLoop=1;jettySize=auto;html=1;exitX=0;exitY=0.5;exitDx=0;exitDy=0;entryX=1;entryY=0.5;entryDx=0;entryDy=0;" edge="1" parent="1" source="OumvZOSQ2JKvcHOGsWiu-8" target="OumvZOSQ2JKvcHOGsWiu-7">
          <mxGeometry relative="1" as="geometry" />
        </mxCell>
        <mxCell id="OumvZOSQ2JKvcHOGsWiu-8" value="Controller" style="rounded=1;whiteSpace=wrap;html=1;fillColor=#dae8fc;strokeColor=#6c8ebf;" vertex="1" parent="1">
          <mxGeometry x="420" y="230" width="120" height="60" as="geometry" />
        </mxCell>
        <mxCell id="OumvZOSQ2JKvcHOGsWiu-32" style="edgeStyle=orthogonalEdgeStyle;rounded=1;orthogonalLoop=1;jettySize=auto;html=1;exitX=0.55;exitY=0.95;exitDx=0;exitDy=0;exitPerimeter=0;entryX=0;entryY=0.5;entryDx=0;entryDy=0;" edge="1" parent="1" source="OumvZOSQ2JKvcHOGsWiu-12" target="OumvZOSQ2JKvcHOGsWiu-2">
          <mxGeometry relative="1" as="geometry" />
        </mxCell>
        <mxCell id="OumvZOSQ2JKvcHOGsWiu-12" value="Configurações do banco&lt;br&gt;Ex.: Nome, local, &lt;br&gt;usuario, senha dialeto..." style="ellipse;shape=cloud;whiteSpace=wrap;html=1;fillColor=#f5f5f5;fontColor=#333333;strokeColor=#666666;" vertex="1" parent="1">
          <mxGeometry x="-50" y="-90" width="210" height="130" as="geometry" />
        </mxCell>
        <mxCell id="OumvZOSQ2JKvcHOGsWiu-37" style="orthogonalLoop=1;jettySize=auto;html=1;exitX=0.55;exitY=0.95;exitDx=0;exitDy=0;exitPerimeter=0;entryX=0.5;entryY=0;entryDx=0;entryDy=0;rounded=1;edgeStyle=orthogonalEdgeStyle;" edge="1" parent="1" source="OumvZOSQ2JKvcHOGsWiu-13" target="OumvZOSQ2JKvcHOGsWiu-3">
          <mxGeometry relative="1" as="geometry" />
        </mxCell>
        <mxCell id="OumvZOSQ2JKvcHOGsWiu-13" value="&lt;br&gt;&lt;br&gt;Modelagem das tabelas &lt;br&gt;do banco. Aqui será &lt;br&gt;definido as &lt;br&gt;carácterísticas de cada&lt;br&gt;&amp;nbsp;coluna." style="ellipse;shape=cloud;whiteSpace=wrap;html=1;fillColor=#f5f5f5;fontColor=#333333;strokeColor=#666666;" vertex="1" parent="1">
          <mxGeometry x="180" y="-90" width="200" height="130" as="geometry" />
        </mxCell>
        <mxCell id="OumvZOSQ2JKvcHOGsWiu-38" style="edgeStyle=orthogonalEdgeStyle;rounded=1;orthogonalLoop=1;jettySize=auto;html=1;exitX=0.55;exitY=0.95;exitDx=0;exitDy=0;exitPerimeter=0;entryX=0.5;entryY=0;entryDx=0;entryDy=0;" edge="1" parent="1" source="OumvZOSQ2JKvcHOGsWiu-17" target="OumvZOSQ2JKvcHOGsWiu-4">
          <mxGeometry relative="1" as="geometry" />
        </mxCell>
        <mxCell id="OumvZOSQ2JKvcHOGsWiu-17" value="Aqui é onde &lt;br&gt;implementamos as &lt;br&gt;funções, Ex.: Create, &lt;br&gt;Read, Update e &lt;br&gt;Destroy (CRUD)" style="ellipse;shape=cloud;whiteSpace=wrap;html=1;fillColor=#f5f5f5;fontColor=#333333;strokeColor=#666666;" vertex="1" parent="1">
          <mxGeometry x="410" y="-90" width="190" height="130" as="geometry" />
        </mxCell>
        <mxCell id="OumvZOSQ2JKvcHOGsWiu-39" style="edgeStyle=orthogonalEdgeStyle;rounded=1;orthogonalLoop=1;jettySize=auto;html=1;exitX=0.55;exitY=0.95;exitDx=0;exitDy=0;exitPerimeter=0;entryX=1;entryY=0.5;entryDx=0;entryDy=0;" edge="1" parent="1" source="OumvZOSQ2JKvcHOGsWiu-18" target="OumvZOSQ2JKvcHOGsWiu-5">
          <mxGeometry relative="1" as="geometry" />
        </mxCell>
        <mxCell id="OumvZOSQ2JKvcHOGsWiu-18" value="Importamos as &lt;br&gt;configurações e&lt;br&gt;&amp;nbsp;serviços e &lt;br&gt;sincronizamos&amp;nbsp;com &lt;br&gt;o banco." style="ellipse;shape=cloud;whiteSpace=wrap;html=1;fillColor=#f5f5f5;fontColor=#333333;strokeColor=#666666;" vertex="1" parent="1">
          <mxGeometry x="630" y="-90" width="190" height="130" as="geometry" />
        </mxCell>
        <mxCell id="OumvZOSQ2JKvcHOGsWiu-42" style="edgeStyle=orthogonalEdgeStyle;rounded=1;orthogonalLoop=1;jettySize=auto;html=1;exitX=0.4;exitY=0.1;exitDx=0;exitDy=0;exitPerimeter=0;entryX=0;entryY=0.5;entryDx=0;entryDy=0;" edge="1" parent="1" source="OumvZOSQ2JKvcHOGsWiu-19" target="OumvZOSQ2JKvcHOGsWiu-6">
          <mxGeometry relative="1" as="geometry" />
        </mxCell>
        <mxCell id="OumvZOSQ2JKvcHOGsWiu-19" value="Definição das rotas e configurações do nosso &lt;br&gt;servidor" style="ellipse;shape=cloud;whiteSpace=wrap;html=1;fillColor=#f5f5f5;fontColor=#333333;strokeColor=#666666;" vertex="1" parent="1">
          <mxGeometry x="-10" y="340" width="190" height="130" as="geometry" />
        </mxCell>
        <mxCell id="OumvZOSQ2JKvcHOGsWiu-41" style="edgeStyle=orthogonalEdgeStyle;rounded=1;orthogonalLoop=1;jettySize=auto;html=1;exitX=0.4;exitY=0.1;exitDx=0;exitDy=0;exitPerimeter=0;entryX=0.5;entryY=1;entryDx=0;entryDy=0;" edge="1" parent="1" source="OumvZOSQ2JKvcHOGsWiu-20" target="OumvZOSQ2JKvcHOGsWiu-7">
          <mxGeometry relative="1" as="geometry" />
        </mxCell>
        <mxCell id="OumvZOSQ2JKvcHOGsWiu-20" value="Aponta pra onde as &lt;br&gt;rotas serão &lt;br&gt;direcionadas" style="ellipse;shape=cloud;whiteSpace=wrap;html=1;fillColor=#f5f5f5;fontColor=#333333;strokeColor=#666666;" vertex="1" parent="1">
          <mxGeometry x="210" y="340" width="190" height="130" as="geometry" />
        </mxCell>
        <mxCell id="OumvZOSQ2JKvcHOGsWiu-40" style="edgeStyle=orthogonalEdgeStyle;rounded=1;orthogonalLoop=1;jettySize=auto;html=1;exitX=0.4;exitY=0.1;exitDx=0;exitDy=0;exitPerimeter=0;entryX=0.5;entryY=1;entryDx=0;entryDy=0;" edge="1" parent="1" source="OumvZOSQ2JKvcHOGsWiu-21" target="OumvZOSQ2JKvcHOGsWiu-8">
          <mxGeometry relative="1" as="geometry" />
        </mxCell>
        <mxCell id="OumvZOSQ2JKvcHOGsWiu-21" value="Definição do &lt;br&gt;funcionamento da página, basicamente onde &lt;br&gt;escrevemos a lógica&lt;br&gt;&amp;nbsp;do que acontecerá caso &lt;br&gt;requisitado." style="ellipse;shape=cloud;whiteSpace=wrap;html=1;fillColor=#f5f5f5;fontColor=#333333;strokeColor=#666666;" vertex="1" parent="1">
          <mxGeometry x="440" y="330" width="210" height="140" as="geometry" />
        </mxCell>
        <mxCell id="OumvZOSQ2JKvcHOGsWiu-46" style="edgeStyle=orthogonalEdgeStyle;rounded=1;orthogonalLoop=1;jettySize=auto;html=1;exitX=0.5;exitY=0;exitDx=0;exitDy=0;entryX=0;entryY=0.5;entryDx=0;entryDy=0;" edge="1" parent="1" source="OumvZOSQ2JKvcHOGsWiu-43" target="OumvZOSQ2JKvcHOGsWiu-44">
          <mxGeometry relative="1" as="geometry" />
        </mxCell>
        <mxCell id="OumvZOSQ2JKvcHOGsWiu-43" value="Services" style="rounded=1;whiteSpace=wrap;html=1;fillColor=#dae8fc;strokeColor=#6c8ebf;" vertex="1" parent="1">
          <mxGeometry x="-240" y="300" width="120" height="60" as="geometry" />
        </mxCell>
        <mxCell id="OumvZOSQ2JKvcHOGsWiu-49" style="edgeStyle=orthogonalEdgeStyle;rounded=1;orthogonalLoop=1;jettySize=auto;html=1;exitX=1;exitY=0.5;exitDx=0;exitDy=0;entryX=0;entryY=0.25;entryDx=0;entryDy=0;" edge="1" parent="1" source="OumvZOSQ2JKvcHOGsWiu-44" target="OumvZOSQ2JKvcHOGsWiu-6">
          <mxGeometry relative="1" as="geometry" />
        </mxCell>
        <mxCell id="OumvZOSQ2JKvcHOGsWiu-44" value="middlewares" style="rounded=1;whiteSpace=wrap;html=1;fillColor=#dae8fc;strokeColor=#6c8ebf;" vertex="1" parent="1">
          <mxGeometry x="-120" y="230" width="120" height="60" as="geometry" />
        </mxCell>
        <mxCell id="OumvZOSQ2JKvcHOGsWiu-52" style="edgeStyle=orthogonalEdgeStyle;rounded=1;orthogonalLoop=1;jettySize=auto;html=1;exitX=0.8;exitY=0.8;exitDx=0;exitDy=0;exitPerimeter=0;entryX=0.25;entryY=0;entryDx=0;entryDy=0;" edge="1" parent="1" source="OumvZOSQ2JKvcHOGsWiu-50" target="OumvZOSQ2JKvcHOGsWiu-43">
          <mxGeometry relative="1" as="geometry" />
        </mxCell>
        <mxCell id="OumvZOSQ2JKvcHOGsWiu-50" value="Configuramos serviços, &lt;br&gt;Ex.: Token de acesso" style="ellipse;shape=cloud;whiteSpace=wrap;html=1;fillColor=#f5f5f5;fontColor=#333333;strokeColor=#666666;" vertex="1" parent="1">
          <mxGeometry x="-440" y="140" width="190" height="130" as="geometry" />
        </mxCell>
        <mxCell id="OumvZOSQ2JKvcHOGsWiu-51" value="Descentralizamos responsabilidades como &lt;br&gt;a lógica do Token de &lt;br&gt;acesso por exemplo." style="ellipse;shape=cloud;whiteSpace=wrap;html=1;fillColor=#f5f5f5;fontColor=#333333;strokeColor=#666666;" vertex="1" parent="1">
          <mxGeometry x="-250" y="50" width="190" height="130" as="geometry" />
        </mxCell>
      </root>
    </mxGraphModel>
  </diagram>
</mxfile>
